<svg width="18" height="18" viewBox="0 0 18 18" fill="none" xmlns="http://www.w3.org/2000/svg">
<path d="M11.97 9.00058L17.5385 3.43203C18.1538 2.81677 18.1538 1.81927 17.5385 1.20496L16.7962 0.462603C16.1807 -0.152855 15.1832 -0.152855 14.5689 0.462603L9.00058 6.03096L3.43203 0.46145C2.81677 -0.153817 1.81927 -0.153817 1.20496 0.46145L0.46145 1.20381C-0.153817 1.81927 -0.153817 2.81677 0.46145 3.43107L6.03096 9.00058L0.462603 14.5689C-0.152855 15.1844 -0.152855 16.1819 0.462603 16.7962L1.20496 17.5385C1.82023 18.1538 2.81773 18.1538 3.43203 17.5385L9.00058 11.97L14.5689 17.5385C15.1844 18.1538 16.1819 18.1538 16.7962 17.5385L17.5385 16.7962C18.1538 16.1807 18.1538 15.1832 17.5385 14.5689L11.97 9.00058Z" fill="#585858"/>
</svg>
