<svg width="25" height="25" viewBox="0 0 25 25" fill="none" xmlns="http://www.w3.org/2000/svg">
<g clip-path="url(#clip0)">
<path d="M2.5 0C1.12125 0 0 1.12125 0 2.5C0 3.87875 1.12125 5 2.5 5C3.87875 5 5 3.87875 5 2.5C5 1.12125 3.87875 0 2.5 0ZM2.5 4.16667C1.58083 4.16667 0.833333 3.41917 0.833333 2.5C0.833333 1.58083 1.58083 0.833333 2.5 0.833333C3.41917 0.833333 4.16667 1.58083 4.16667 2.5C4.16667 3.41917 3.41917 4.16667 2.5 4.16667Z" fill="white"/>
<path d="M22.5 14.1666C21.1212 14.1666 20 15.2879 20 16.6666C20 18.0454 21.1212 19.1666 22.5 19.1666C23.8787 19.1666 25 18.0454 25 16.6666C25 15.2879 23.8787 14.1666 22.5 14.1666ZM22.5 18.3333C21.5808 18.3333 20.8333 17.5858 20.8333 16.6666C20.8333 15.7475 21.5808 15 22.5 15C23.4192 15 24.1667 15.7475 24.1667 16.6666C24.1667 17.5858 23.4192 18.3333 22.5 18.3333Z" fill="white"/>
<path d="M22.5 20C21.1212 20 20 21.1212 20 22.5C20 23.8787 21.1212 25 22.5 25C23.8787 25 25 23.8787 25 22.5C25 21.1212 23.8787 20 22.5 20ZM22.5 24.1667C21.5808 24.1667 20.8333 23.4192 20.8333 22.5C20.8333 21.5808 21.5808 20.8333 22.5 20.8333C23.4192 20.8333 24.1667 21.5808 24.1667 22.5C24.1667 23.4192 23.4192 24.1667 22.5 24.1667Z" fill="white"/>
<path d="M14.4613 2.20544L13.2113 0.955444L12.6221 1.54461L13.1609 2.08336H5.83337V2.91669H13.1609L12.6221 3.45544L13.2113 4.04461L14.4613 2.79461C14.6242 2.63169 14.6242 2.36836 14.4613 2.20544Z" fill="white"/>
<path d="M17.9166 9.16674H10.5891L11.1279 8.62799L10.5387 8.03882L9.28869 9.28882C9.12577 9.45174 9.12577 9.71507 9.28869 9.87799L10.5387 11.128L11.1279 10.5388L10.5891 10.0001H17.9166V9.16674Z" fill="white"/>
<path d="M21.0417 2.08337H15.4167V2.91671H21.0417C22.7651 2.91671 24.1667 4.31837 24.1667 6.04171C24.1667 7.76504 22.7651 9.16671 21.0417 9.16671H20.1726L20.7113 8.62796L20.1222 8.03879L18.8722 9.28879C18.7092 9.45171 18.7092 9.71504 18.8722 9.87796L20.1222 11.128L20.7113 10.5388L20.1726 10H21.0417C23.2242 10 25.0001 8.22421 25.0001 6.04171C25.0001 3.85921 23.2242 2.08337 21.0417 2.08337Z" fill="white"/>
<path d="M19.0446 16.3721L17.7946 15.1221L17.2054 15.7112L17.7442 16.25H12.5V17.0833H17.7442L17.2054 17.6221L17.7946 18.2112L19.0446 16.9612C19.2075 16.7983 19.2075 16.535 19.0446 16.3721Z" fill="white"/>
<path d="M19.0446 22.2055L17.7946 20.9555L17.2054 21.5447L17.7442 22.0834H10.8333C9.45458 22.0834 8.33333 20.9622 8.33333 19.5834C8.33333 18.5876 7.89208 17.6947 7.1975 17.0834H10.2442L9.70542 17.6222L10.2946 18.2113L11.5446 16.9613C11.7075 16.7984 11.7075 16.5351 11.5446 16.3722L10.2946 15.1222L9.70542 15.7113L10.2442 16.2501H5H4.58333H3.95833C2.235 16.2501 0.833333 14.8484 0.833333 13.1251C0.833333 11.4017 2.235 10.0001 3.95833 10.0001H8.33333V9.16675H3.95833C1.77583 9.16675 0 10.9426 0 13.1251C0 15.3076 1.77583 17.0834 3.95833 17.0834H4.58333H5C6.37875 17.0834 7.5 18.2047 7.5 19.5834C7.5 21.4213 8.99542 22.9167 10.8333 22.9167H17.7442L17.2054 23.4555L17.7946 24.0447L19.0446 22.7947C19.2075 22.6317 19.2075 22.3684 19.0446 22.2055Z" fill="white"/>
<path d="M6.24996 20H5.41663V20.8333H6.24996V20Z" fill="white"/>
<path d="M4.58333 20H3.75V20.8333H4.58333V20Z" fill="white"/>
<path d="M2.91671 20H2.08337V20.8333H2.91671V20Z" fill="white"/>
</g>
<defs>
<clipPath id="clip0">
<rect width="25" height="25" fill="white"/>
</clipPath>
</defs>
</svg>
