<svg width="30" height="27" viewBox="0 0 30 27" fill="none" xmlns="http://www.w3.org/2000/svg">
<path d="M29.6809 10.5625L15.4605 0.150556C15.1863 -0.0501855 14.8137 -0.0501855 14.5396 0.150556L0.319076 10.5625C-0.0282668 10.8168 -0.103735 11.3046 0.15062 11.6519C0.404975 11.9992 0.892767 12.0746 1.24005 11.8204L15 1.74553L28.76 11.8203C28.8987 11.922 29.06 11.9709 29.2198 11.9709C29.4598 11.9709 29.6966 11.8604 29.8493 11.6518C30.1037 11.3046 30.0283 10.8168 29.6809 10.5625Z" fill="white"/>
<path d="M25.9127 11.9968C25.4823 11.9968 25.1332 12.3458 25.1332 12.7763V25.1834H18.8976V18.4108C18.8976 16.2616 17.149 14.5132 14.9999 14.5132C12.8508 14.5132 11.1023 16.2617 11.1023 18.4108V25.1835H4.86656V12.7764C4.86656 12.3459 4.51752 11.9969 4.08709 11.9969C3.65666 11.9969 3.30762 12.3459 3.30762 12.7764V25.963C3.30762 26.3935 3.65666 26.7425 4.08709 26.7425H11.8817C12.2917 26.7425 12.6271 26.4258 12.6582 26.0237C12.66 26.0055 12.6612 25.9856 12.6612 25.963V18.4109C12.6612 17.1213 13.7103 16.0722 14.9999 16.0722C16.2895 16.0722 17.3386 17.1214 17.3386 18.4109V25.963C17.3386 25.9855 17.3398 26.005 17.3417 26.023C17.3724 26.4254 17.7079 26.7425 18.1181 26.7425H25.9128C26.3432 26.7425 26.6922 26.3935 26.6922 25.963V12.7764C26.6922 12.3458 26.3432 11.9968 25.9127 11.9968Z" fill="white"/>
</svg>
