<svg width="42" height="42" viewBox="0 0 42 42" fill="none" xmlns="http://www.w3.org/2000/svg">
<path d="M7.875 13.6763H21C21.2611 13.6763 21.5115 13.5725 21.6961 13.3879C21.8807 13.2033 21.9844 12.953 21.9844 12.6919C21.9844 12.4308 21.8807 12.1804 21.6961 11.9958C21.5115 11.8112 21.2611 11.7075 21 11.7075H7.875C7.61393 11.7075 7.36355 11.8112 7.17894 11.9958C6.99434 12.1804 6.89063 12.4308 6.89062 12.6919C6.89063 12.953 6.99434 13.2033 7.17894 13.3879C7.36355 13.5725 7.61393 13.6763 7.875 13.6763Z" fill="white"/>
<path d="M35.1094 21C35.1094 20.7389 35.0057 20.4885 34.8211 20.3039C34.6365 20.1193 34.3861 20.0156 34.125 20.0156H7.875C7.61393 20.0156 7.36355 20.1193 7.17894 20.3039C6.99434 20.4885 6.89063 20.7389 6.89062 21C6.89063 21.2611 6.99434 21.5115 7.17894 21.6961C7.36355 21.8807 7.61393 21.9844 7.875 21.9844H34.125C34.3861 21.9844 34.6365 21.8807 34.8211 21.6961C35.0057 21.5115 35.1094 21.2611 35.1094 21Z" fill="white"/>
<path d="M34.125 28.3238H21C20.7389 28.3238 20.4885 28.4275 20.3039 28.6121C20.1193 28.7967 20.0156 29.0471 20.0156 29.3081C20.0156 29.5692 20.1193 29.8196 20.3039 30.0042C20.4885 30.1888 20.7389 30.2925 21 30.2925H34.125C34.3861 30.2925 34.6365 30.1888 34.8211 30.0042C35.0057 29.8196 35.1094 29.5692 35.1094 29.3081C35.1094 29.0471 35.0057 28.7967 34.8211 28.6121C34.6365 28.4275 34.3861 28.3238 34.125 28.3238Z" fill="white"/>
</svg>
