<svg width="30" height="30" viewBox="0 0 30 30" fill="none" xmlns="http://www.w3.org/2000/svg">
<g clip-path="url(#clip0)">
<path d="M15.3916 16.3727C15.3361 16.3607 15.2792 16.3585 15.223 16.3669C14.6595 16.3014 14.2345 15.8246 14.2335 15.2576C14.2335 14.9858 14.0132 14.7655 13.7414 14.7655C13.4697 14.7655 13.2493 14.9858 13.2493 15.2576C13.2508 16.2045 13.8841 17.034 14.7972 17.2846V17.7766C14.7972 18.0484 15.0175 18.2687 15.2893 18.2687C15.561 18.2687 15.7814 18.0484 15.7814 17.7766V17.3144C16.8352 17.0938 17.5515 16.1123 17.4407 15.0413C17.3297 13.9704 16.4275 13.1566 15.3508 13.1564C14.7337 13.1564 14.2335 12.6561 14.2335 12.0391C14.2335 11.4221 14.7337 10.9218 15.3508 10.9218C15.9678 10.9218 16.4681 11.4221 16.4681 12.0391C16.4681 12.3108 16.6884 12.5312 16.9602 12.5312C17.2319 12.5312 17.4522 12.3108 17.4522 12.0391C17.4508 11.0448 16.7542 10.1873 15.7814 9.98208V9.5342C15.7814 9.26245 15.561 9.04211 15.2893 9.04211C15.0175 9.04211 14.7972 9.26245 14.7972 9.5342V10.0121C13.7818 10.2894 13.1282 11.2752 13.2681 12.3185C13.4079 13.3618 14.2981 14.1405 15.3508 14.1403C15.9596 14.1403 16.4563 14.6278 16.4673 15.2364C16.4786 15.8451 16 16.3506 15.3916 16.3727Z" fill="white"/>
<path d="M8.21509 13.6862C8.21509 17.6272 11.4098 20.8219 15.3508 20.8219C19.2918 20.8219 22.4866 17.6272 22.4866 13.6862C22.4866 9.74513 19.2918 6.55042 15.3508 6.55042C11.4117 6.55474 8.21965 9.74706 8.21509 13.6862ZM15.3508 7.53459C18.7483 7.53459 21.5024 10.2886 21.5024 13.6862C21.5024 17.0837 18.7483 19.8377 15.3508 19.8377C11.9533 19.8377 9.19926 17.0837 9.19926 13.6862C9.20311 10.2903 11.955 7.53843 15.3508 7.53459Z" fill="white"/>
<path d="M24.9124 22.0351L21.0577 23.8564C20.5254 22.8664 19.5045 22.2364 18.381 22.2047L14.8225 22.1069C14.259 22.0908 13.7062 21.9481 13.2052 21.6893L12.8431 21.5017C10.9891 20.5353 8.77928 20.5377 6.92722 21.5079L6.94981 20.6876C6.95726 20.4158 6.74317 20.1895 6.47142 20.1821L2.56933 20.0747C2.29757 20.0672 2.07147 20.2813 2.06403 20.553L1.82831 29.116C1.82087 29.3878 2.03495 29.6141 2.3067 29.6216L6.2088 29.729H6.22225C6.48896 29.729 6.70713 29.5168 6.71434 29.2503L6.72563 28.8407L7.73936 28.2979C8.13726 28.0838 8.60243 28.0329 9.03709 28.1559L15.0906 29.8549C15.1012 29.858 15.1118 29.8604 15.1226 29.8628C15.5601 29.9543 16.0061 30.0002 16.453 30C17.3997 30.0005 18.3353 29.7965 19.1958 29.4015C19.2169 29.3919 19.2373 29.3806 19.2568 29.3678L28.0338 23.6906C28.2525 23.5491 28.3231 23.2619 28.1951 23.0351C27.5434 21.8789 26.0982 21.4385 24.9124 22.0351ZM2.8257 28.6513L3.03426 21.072L5.95242 21.1523L5.74386 28.7318L2.8257 28.6513ZM18.7524 28.5225C17.6834 29.005 16.4895 29.1381 15.3405 28.9034L9.30332 27.2087C8.62382 27.0167 7.8965 27.0963 7.27491 27.4305L6.75687 27.708L6.89551 22.6687C8.53708 21.5769 10.6424 21.4647 12.3906 22.3755L12.7527 22.5632C13.3856 22.89 14.0836 23.0702 14.7956 23.0908L18.3543 23.1886C19.3539 23.2175 20.2027 23.9292 20.4055 24.9085L15.1048 24.7622C14.833 24.7548 14.6069 24.9691 14.5993 25.2406C14.5918 25.5124 14.8061 25.7387 15.0777 25.7461L20.9274 25.9071H20.9411C21.2076 25.9069 21.4255 25.6947 21.4327 25.4285C21.4387 25.2147 21.4229 25.0006 21.3852 24.7901L25.3389 22.9219C25.3427 22.9202 25.3466 22.9183 25.3504 22.9164C25.9112 22.6326 26.5893 22.7275 27.0506 23.1545L18.7524 28.5225Z" fill="white"/>
<path d="M15.8429 5.16691V0.492087C15.8429 0.220334 15.6226 0 15.3509 0C15.0791 0 14.8588 0.220334 14.8588 0.492087V5.16691C14.8588 5.43866 15.0791 5.659 15.3509 5.659C15.6226 5.659 15.8429 5.43866 15.8429 5.16691Z" fill="white"/>
<path d="M19.5336 5.16693V2.95254C19.5336 2.68078 19.3133 2.46045 19.0415 2.46045C18.7698 2.46045 18.5494 2.68078 18.5494 2.95254V5.16693C18.5494 5.43868 18.7698 5.65901 19.0415 5.65901C19.3133 5.65901 19.5336 5.43868 19.5336 5.16693Z" fill="white"/>
<path d="M12.1523 5.16693V2.95254C12.1523 2.68078 11.9319 2.46045 11.6602 2.46045C11.3884 2.46045 11.1681 2.68078 11.1681 2.95254V5.16693C11.1681 5.43868 11.3884 5.65901 11.6602 5.65901C11.9319 5.65901 12.1523 5.43868 12.1523 5.16693Z" fill="white"/>
</g>
<defs>
<clipPath id="clip0">
<rect width="30" height="30" fill="white"/>
</clipPath>
</defs>
</svg>
