<svg width="30" height="30" viewBox="0 0 30 30" fill="none" xmlns="http://www.w3.org/2000/svg">
<path d="M27.0056 14.1705C27.0056 12.6632 25.8691 11.4172 24.4082 11.2421V3.67711C24.4082 3.21393 24.1078 2.8217 23.6605 2.70117C23.2134 2.58076 22.7565 2.76873 22.5238 3.1691C20.9258 5.91844 18.4088 7.79766 15.0428 8.75467C12.4976 9.4783 10.3972 9.37342 10.377 9.37219C10.3461 9.37043 10.3155 9.37189 10.2851 9.37494H4.90324C2.19961 9.37494 0 11.5746 0 14.2782C0 16.8247 1.95158 18.9233 4.43754 19.1587L6.06082 25.8338C6.27574 26.7176 7.06113 27.3349 7.97074 27.3349H9.09738C9.70436 27.3349 10.2676 27.0612 10.6427 26.584C11.0179 26.1067 11.1507 25.4947 11.0073 24.9049L9.61541 19.1814H10.2841C10.3146 19.1845 10.3454 19.1859 10.3764 19.1842C10.3973 19.183 12.4976 19.078 15.0428 19.8017C18.4087 20.7587 20.9257 22.6379 22.5238 25.3872C22.7096 25.707 23.0382 25.8912 23.3907 25.8912C23.4798 25.8912 23.5703 25.8795 23.6605 25.8552C24.1078 25.7347 24.4082 25.3425 24.4082 24.8793V17.3142C25.8691 17.1392 27.0056 15.8931 27.0056 14.3859V14.1705ZM9.68344 24.4206L9.86854 25.1818C9.92649 25.42 9.87287 25.6672 9.72135 25.8599C9.56994 26.0526 9.34248 26.1631 9.09738 26.1631H7.97074C7.60342 26.1631 7.28631 25.9138 7.19953 25.557L5.64908 19.1814H8.40938L8.82322 20.8833H8.54314C8.21953 20.8833 7.95721 21.1456 7.95721 21.4692C7.95721 21.7928 8.21953 22.0552 8.54314 22.0552H9.10816L9.39844 23.2487H9.2148C8.89119 23.2487 8.62887 23.511 8.62887 23.8347C8.62887 24.1583 8.89119 24.4206 9.2148 24.4206H9.68344ZM9.75779 15.5231H6.11643C5.79281 15.5231 5.53049 15.7854 5.53049 16.109C5.53049 16.4326 5.79281 16.6949 6.11643 16.6949H9.75779V18.0096H8.9018C8.89107 18.009 8.88041 18.0082 8.86951 18.0082H4.90324C4.89768 18.0082 4.89217 18.009 4.8866 18.0091C2.83682 18.0001 1.17188 16.3301 1.17188 14.2782C1.17188 12.2207 2.84578 10.5468 4.90324 10.5468H9.75779V15.5231ZM23.2362 11.8063V16.7501V24.3069C21.4803 21.576 18.7566 19.6303 15.3237 18.6633C13.423 18.1279 11.7813 18.021 10.9297 18.0071V16.109V10.5493C11.7814 10.5354 13.4232 10.4284 15.3237 9.89303C18.7565 8.926 21.4803 6.98033 23.2362 4.24951V11.8063ZM25.8336 14.3859C25.8336 15.2457 25.2203 15.9649 24.4081 16.129V12.4274C25.2203 12.5914 25.8336 13.3107 25.8336 14.1705V14.3859Z" fill="white"/>
<path d="M27.1809 10.8597C27.3217 10.8597 27.463 10.8092 27.5753 10.707L29.2653 9.16782C29.5045 8.94991 29.5219 8.57936 29.304 8.34007C29.0861 8.10083 28.7155 8.08354 28.4762 8.3014L26.7863 9.84048C26.547 10.0584 26.5297 10.4289 26.7476 10.6682C26.8633 10.7952 27.0218 10.8597 27.1809 10.8597Z" fill="white"/>
<path d="M27.5753 17.8495C27.336 17.6316 26.9655 17.6489 26.7476 17.8882C26.5297 18.1274 26.547 18.498 26.7863 18.7159L28.4762 20.255C28.5886 20.3573 28.7298 20.4078 28.8706 20.4078C29.0298 20.4078 29.1884 20.3433 29.304 20.2163C29.5219 19.9771 29.5045 19.6065 29.2653 19.3886L27.5753 17.8495Z" fill="white"/>
<path d="M29.4141 13.6923H28.1165C27.7928 13.6923 27.5305 13.9546 27.5305 14.2782C27.5305 14.6018 27.7928 14.8641 28.1165 14.8641H29.4141C29.7377 14.8641 30.0001 14.6018 30.0001 14.2782C30.0001 13.9546 29.7377 13.6923 29.4141 13.6923Z" fill="white"/>
<path d="M4.24331 15.8851C4.22866 15.8494 4.2105 15.8154 4.1894 15.7838C4.16772 15.7515 4.1437 15.7217 4.11675 15.6947C4.08921 15.6678 4.05933 15.6431 4.0271 15.622C3.99546 15.601 3.96148 15.5828 3.92632 15.5681C3.89058 15.5535 3.85366 15.5424 3.81675 15.5347C3.74116 15.5195 3.66323 15.5195 3.58765 15.5347C3.55015 15.5424 3.51323 15.5535 3.47808 15.5681C3.44292 15.5828 3.40835 15.601 3.37671 15.622C3.34448 15.6431 3.3146 15.6678 3.28765 15.6947C3.26069 15.7217 3.23608 15.7515 3.21499 15.7838C3.1939 15.8154 3.17573 15.8494 3.16108 15.8851C3.14644 15.9203 3.1353 15.9572 3.12769 15.9947C3.12007 16.0322 3.11597 16.0709 3.11597 16.109C3.11597 16.1471 3.12007 16.1857 3.12769 16.2238C3.1353 16.2607 3.14644 16.2976 3.16108 16.3334C3.17573 16.3685 3.1939 16.4025 3.21499 16.4342C3.23608 16.4664 3.26069 16.4963 3.28765 16.5232C3.3146 16.5502 3.34448 16.5748 3.37671 16.5965C3.40835 16.6176 3.44292 16.6357 3.47808 16.6504C3.51323 16.665 3.55015 16.6762 3.58765 16.6838C3.62573 16.6914 3.66382 16.6949 3.7019 16.6949C3.74058 16.6949 3.77866 16.6914 3.81675 16.6838C3.85425 16.6762 3.89058 16.665 3.92632 16.6504C3.96148 16.6357 3.99546 16.6176 4.0271 16.5965C4.05933 16.5748 4.08921 16.5502 4.11675 16.5232C4.1437 16.4963 4.16772 16.4664 4.1894 16.4342C4.2105 16.4025 4.22866 16.3685 4.24331 16.3334C4.25796 16.2976 4.26909 16.2607 4.27671 16.2238C4.28433 16.1857 4.28784 16.1471 4.28784 16.109C4.28784 16.0709 4.28433 16.0322 4.27671 15.9947C4.26909 15.9572 4.25796 15.9203 4.24331 15.8851Z" fill="white"/>
</svg>
