<svg width="29" height="29" viewBox="0 0 29 29" fill="none" xmlns="http://www.w3.org/2000/svg">
<path d="M0.906183 18.5781C0.906687 18.9798 1.0404 19.37 1.28638 19.6876C1.53237 20.0052 1.87673 20.2323 2.26556 20.3332V21.75C2.26556 21.8702 2.3133 21.9854 2.39828 22.0704C2.48325 22.1554 2.59851 22.2031 2.71868 22.2031C2.83886 22.2031 2.95411 22.1554 3.03909 22.0704C3.12407 21.9854 3.17181 21.8702 3.17181 21.75V20.3332C3.56103 20.2329 3.90586 20.006 4.15206 19.6883C4.39826 19.3706 4.53187 18.9801 4.53187 18.5781C4.53187 18.1762 4.39826 17.7856 4.15206 17.4679C3.90586 17.1502 3.56103 16.9233 3.17181 16.823V11.4967L5.89056 13.8033V15.95C5.89055 16.0482 5.92247 16.1438 5.98151 16.2223C6.04055 16.3009 6.12351 16.3581 6.21789 16.3853C6.38696 16.4342 10.4048 17.5812 14.4999 17.5812C17.7371 17.5812 20.9255 16.8646 22.2031 16.5401V23.1094C22.2031 24.1088 23.2194 24.9219 24.4687 24.9219C25.718 24.9219 26.7343 24.1088 26.7343 23.1094V10.7277L27.9337 9.71007C27.9979 9.65569 28.0456 9.58453 28.0716 9.50456C28.0977 9.42458 28.1009 9.33895 28.081 9.25724C28.0611 9.17552 28.0189 9.10096 27.959 9.04189C27.8991 8.98282 27.824 8.94157 27.7421 8.92277L26.7343 8.69133V5.89062C26.7343 4.8912 25.718 4.07812 24.4687 4.07812C23.2194 4.07812 22.2031 4.8912 22.2031 5.89062V7.64966L14.6014 5.90195C14.5346 5.88666 14.4652 5.88666 14.3984 5.90195L1.25781 8.92282C1.17584 8.94163 1.10072 8.98287 1.04086 9.04194C0.980999 9.10102 0.938758 9.17558 0.918865 9.25729C0.898972 9.339 0.902212 9.42464 0.928221 9.50462C0.954231 9.58459 1.00198 9.65575 1.06614 9.71013L2.26556 10.7277V16.823C1.87673 16.924 1.53237 17.151 1.28638 17.4686C1.0404 17.7862 0.906687 18.1764 0.906183 18.5781ZM6.79681 13.8501C7.83633 13.5792 11.19 12.7781 14.4999 12.7781C17.8098 12.7781 21.1635 13.5792 22.2031 13.8501V15.2693C20.9252 14.9447 17.7368 14.2281 14.4999 14.2281C11.2631 14.2281 8.07468 14.9447 6.79681 15.2693V13.8501ZM23.1093 15.4062H25.8281V21.6603C25.4146 21.4222 24.9458 21.2969 24.4687 21.2969C23.9915 21.2969 23.5228 21.4222 23.1093 21.6603V15.4062ZM25.8281 14.5H23.1093V13.5938H25.8281V14.5ZM25.8281 12.6875H23.1093V7.33966C23.5228 7.57779 23.9915 7.70313 24.4687 7.70313C24.9458 7.70313 25.4146 7.57779 25.8281 7.33966V12.6875ZM22.2031 12.913C20.9255 12.5885 17.7371 11.8719 14.4999 11.8719C11.2628 11.8719 8.0744 12.5885 6.79681 12.913V11.4939C7.83701 11.2227 11.1907 10.4219 14.4999 10.4219C17.8092 10.4219 21.1629 11.2227 22.2031 11.4939V12.913ZM8.06414 15.9047C9.608 15.5677 12.0657 15.1344 14.4999 15.1344C16.9341 15.1344 19.3919 15.5677 20.9357 15.9047C19.3919 16.2418 16.9339 16.675 14.4999 16.675C12.066 16.675 9.608 16.2418 8.06414 15.9047ZM24.4687 24.0156C23.7318 24.0156 23.1093 23.6006 23.1093 23.1094C23.1093 22.6181 23.7318 22.2031 24.4687 22.2031C25.2056 22.2031 25.8281 22.6181 25.8281 23.1094C25.8281 23.6006 25.2056 24.0156 24.4687 24.0156ZM24.4687 4.98438C25.2056 4.98438 25.8281 5.39938 25.8281 5.89062C25.8281 6.38187 25.2056 6.79688 24.4687 6.79688C23.7318 6.79688 23.1093 6.38187 23.1093 5.89062C23.1093 5.39938 23.7318 4.98438 24.4687 4.98438ZM14.4999 6.80866L22.2031 8.57953V10.5568C20.9255 10.2323 17.7371 9.51562 14.4999 9.51562C10.4048 9.51562 6.38696 10.6627 6.21789 10.7115C6.12351 10.7388 6.04055 10.796 5.98151 10.8745C5.92247 10.9531 5.89055 11.0486 5.89056 11.1469V12.615L2.34157 9.60376L14.4999 6.80866ZM3.62493 18.5781C3.62493 18.7574 3.57178 18.9326 3.4722 19.0816C3.37262 19.2306 3.23109 19.3468 3.06549 19.4154C2.89989 19.484 2.71768 19.5019 2.54188 19.467C2.36609 19.432 2.20461 19.3457 2.07787 19.2189C1.95113 19.0922 1.86481 18.9307 1.82985 18.7549C1.79488 18.5791 1.81283 18.3969 1.88142 18.2313C1.95001 18.0657 2.06617 17.9242 2.2152 17.8246C2.36423 17.725 2.53944 17.6719 2.71868 17.6719C2.95895 17.6722 3.18929 17.7677 3.35918 17.9376C3.52908 18.1075 3.62465 18.3379 3.62493 18.5781Z" fill="white"/>
</svg>
