<svg width="1440" height="298" viewBox="0 0 1440 298" fill="none" xmlns="http://www.w3.org/2000/svg">
<path d="M0 95.9769H20C40 95.9769 80 95.9769 120 117.272C160 138.967 200 180.956 240 207.95C280 234.943 320 244.941 360 250.64C400 255.938 440 255.938 480 261.237C520 266.936 560 276.933 600 287.931C640 298.928 680 308.926 720 271.935C760 234.943 800 148.964 840 133.268C880 116.972 920 170.959 960 170.659C1000 170.959 1040 116.972 1080 127.969C1120 138.967 1160 212.949 1200 229.245C1240 244.941 1280 202.951 1320 202.651C1360 202.951 1400 244.941 1420 266.636L1440 287.931V0H1420C1400 0 1360 0 1320 0C1280 0 1240 0 1200 0C1160 0 1120 0 1080 0C1040 0 1000 0 960 0C920 0 880 0 840 0C800 0 760 0 720 0C680 0 640 0 600 0C560 0 520 0 480 0C440 0 400 0 360 0C320 0 280 0 240 0C200 0 160 0 120 0C80 0 40 0 20 0H0V95.9769Z" fill="#DBDBDB" fill-opacity="0.4"/>
</svg>
