<?xml version="1.0" standalone="no"?><svg xmlns="http://www.w3.org/2000/svg" viewBox="0 0 1440 320"><path fill="#b1b1b1" fill-opacity="1" d="M0,96L20,96C40,96,80,96,120,117.3C160,139,200,181,240,208C280,235,320,245,360,250.7C400,256,440,256,480,261.3C520,267,560,277,600,288C640,299,680,309,720,272C760,235,800,149,840,133.3C880,117,920,171,960,170.7C1000,171,1040,117,1080,128C1120,139,1160,213,1200,229.3C1240,245,1280,203,1320,202.7C1360,203,1400,245,1420,266.7L1440,288L1440,0L1420,0C1400,0,1360,0,1320,0C1280,0,1240,0,1200,0C1160,0,1120,0,1080,0C1040,0,1000,0,960,0C920,0,880,0,840,0C800,0,760,0,720,0C680,0,640,0,600,0C560,0,520,0,480,0C440,0,400,0,360,0C320,0,280,0,240,0C200,0,160,0,120,0C80,0,40,0,20,0L0,0Z"></path></svg>